<svg width="1000" height="500" xmlns="http://www.w3.org/2000/svg">
  <defs>
    <style>
      .title-text { font-family: Arial, sans-serif; font-size: 24px; font-weight: bold; fill: #2C3E50; text-anchor: middle; }
      .week-box { fill: #3498DB; stroke: #2980B9; stroke-width: 2; }
      .week-text { font-family: Arial, sans-serif; font-size: 11px; fill: white; text-anchor: middle; }
      .week-number { font-family: Arial, sans-serif; font-size: 14px; font-weight: bold; fill: white; text-anchor: middle; }
      .phase-label { font-family: Arial, sans-serif; font-size: 14px; font-weight: bold; fill: #2C3E50; }
      .milestone { fill: #E74C3C; stroke: #C0392B; stroke-width: 2; }
      .milestone-text { font-family: Arial, sans-serif; font-size: 10px; font-weight: bold; fill: white; text-anchor: middle; }
      .timeline-line { stroke: #95A5A6; stroke-width: 3; }
      .arrow { fill: #95A5A6; }
    </style>
  </defs>
  
  <!-- Title -->
  <text x="500" y="35" class="title-text">16주 학습 로드맵</text>
  
  <!-- Timeline Base -->
  <line x1="50" y1="250" x2="950" y2="250" class="timeline-line"/>
  <polygon points="945,250 935,245 935,255" class="arrow"/>
  
  <!-- Week 0: Orientation -->
  <rect x="40" y="80" width="50" height="140" rx="5" fill="#9B59B6" stroke="#8E44AD" stroke-width="2"/>
  <text x="65" y="100" class="week-number">W0</text>
  <text x="65" y="120" class="week-text">오리엔</text>
  <text x="65" y="135" class="week-text">테이션</text>
  <line x1="65" y1="220" x2="65" y2="245" stroke="#9B59B6" stroke-width="2"/>
  <circle cx="65" cy="250" r="5" fill="#9B59B6"/>
  
  <!-- Phase 1: Foundation (Weeks 1-3) -->
  <text x="105" y="75" class="phase-label" style="fill: #3498DB;">Phase 1: 기초</text>
  
  <rect x="105" y="140" width="50" height="80" rx="5" class="week-box"/>
  <text x="130" y="160" class="week-number">W1</text>
  <text x="130" y="180" class="week-text">PM</text>
  <text x="130" y="195" class="week-text">이해</text>
  <line x1="130" y1="220" x2="130" y2="245" stroke="#3498DB" stroke-width="2"/>
  <circle cx="130" cy="250" r="5" fill="#3498DB"/>
  
  <rect x="170" y="140" width="50" height="80" rx="5" class="week-box"/>
  <text x="195" y="160" class="week-number">W2</text>
  <text x="195" y="180" class="week-text">PM</text>
  <text x="195" y="195" class="week-text">기초</text>
  <line x1="195" y1="220" x2="195" y2="245" stroke="#3498DB" stroke-width="2"/>
  <circle cx="195" cy="250" r="5" fill="#3498DB"/>
  
  <rect x="235" y="140" width="50" height="80" rx="5" class="week-box"/>
  <text x="260" y="160" class="week-number">W3</text>
  <text x="260" y="180" class="week-text">이해</text>
  <text x="260" y="195" class="week-text">관계자</text>
  <line x1="260" y1="220" x2="260" y2="245" stroke="#3498DB" stroke-width="2"/>
  <circle cx="260" cy="250" r="5" fill="#3498DB"/>
  
  <!-- Phase 2: Core Skills (Weeks 4-8) -->
  <text x="300" y="75" class="phase-label" style="fill: #E67E22;">Phase 2: 핵심 역량</text>
  
  <rect x="300" y="140" width="50" height="80" rx="5" fill="#E67E22" stroke="#D35400" stroke-width="2"/>
  <text x="325" y="160" class="week-number">W4</text>
  <text x="325" y="180" class="week-text">범위</text>
  <line x1="325" y1="220" x2="325" y2="245" stroke="#E67E22" stroke-width="2"/>
  <circle cx="325" cy="250" r="5" fill="#E67E22"/>
  
  <rect x="365" y="140" width="50" height="80" rx="5" fill="#E67E22" stroke="#D35400" stroke-width="2"/>
  <text x="390" y="160" class="week-number">W5</text>
  <text x="390" y="180" class="week-text">일정</text>
  <line x1="390" y1="220" x2="390" y2="245" stroke="#E67E22" stroke-width="2"/>
  <circle cx="390" cy="250" r="5" fill="#E67E22"/>
  
  <rect x="430" y="140" width="50" height="80" rx="5" fill="#E67E22" stroke="#D35400" stroke-width="2"/>
  <text x="455" y="160" class="week-number">W6</text>
  <text x="455" y="180" class="week-text">원가</text>
  <line x1="455" y1="220" x2="455" y2="245" stroke="#E67E22" stroke-width="2"/>
  <circle cx="455" cy="250" r="5" fill="#E67E22"/>
  
  <rect x="495" y="140" width="50" height="80" rx="5" fill="#E67E22" stroke="#D35400" stroke-width="2"/>
  <text x="520" y="160" class="week-number">W7</text>
  <text x="520" y="180" class="week-text">품질/</text>
  <text x="520" y="195" class="week-text">리스크</text>
  <line x1="520" y1="220" x2="520" y2="245" stroke="#E67E22" stroke-width="2"/>
  <circle cx="520" cy="250" r="5" fill="#E67E22"/>
  
  <rect x="560" y="140" width="50" height="80" rx="5" fill="#E67E22" stroke="#D35400" stroke-width="2"/>
  <text x="585" y="160" class="week-number">W8</text>
  <text x="585" y="180" class="week-text">자원/</text>
  <text x="585" y="195" class="week-text">조달</text>
  <line x1="585" y1="220" x2="585" y2="245" stroke="#E67E22" stroke-width="2"/>
  <circle cx="585" cy="250" r="5" fill="#E67E22"/>
  
  <!-- Milestone 1 -->
  <polygon points="585,270 595,290 575,290" class="milestone"/>
  <text x="585" y="310" class="milestone-text">중간 평가</text>
  
  <!-- Phase 3: Practical (Weeks 9-12) -->
  <text x="625" y="75" class="phase-label" style="fill: #2ECC71;">Phase 3: 실전</text>
  
  <rect x="625" y="140" width="50" height="80" rx="5" fill="#2ECC71" stroke="#27AE60" stroke-width="2"/>
  <text x="650" y="160" class="week-number">W9</text>
  <text x="650" y="180" class="week-text">애자일/</text>
  <text x="650" y="195" class="week-text">스크럼</text>
  <line x1="650" y1="220" x2="650" y2="245" stroke="#2ECC71" stroke-width="2"/>
  <circle cx="650" cy="250" r="5" fill="#2ECC71"/>
  
  <rect x="690" y="140" width="50" height="80" rx="5" fill="#2ECC71" stroke="#27AE60" stroke-width="2"/>
  <text x="715" y="160" class="week-number">W10</text>
  <text x="715" y="180" class="week-text">PM</text>
  <text x="715" y="195" class="week-text">도구</text>
  <line x1="715" y1="220" x2="715" y2="245" stroke="#2ECC71" stroke-width="2"/>
  <circle cx="715" cy="250" r="5" fill="#2ECC71"/>
  
  <rect x="755" y="120" width="50" height="100" rx="5" fill="#2ECC71" stroke="#27AE60" stroke-width="2"/>
  <text x="780" y="145" class="week-number">W11</text>
  <text x="780" y="165" class="week-text">모의</text>
  <text x="780" y="180" class="week-text">프로젝트</text>
  <line x1="780" y1="220" x2="780" y2="245" stroke="#2ECC71" stroke-width="2"/>
  <circle cx="780" cy="250" r="5" fill="#2ECC71"/>
  
  <rect x="820" y="120" width="50" height="100" rx="5" fill="#2ECC71" stroke="#27AE60" stroke-width="2"/>
  <text x="845" y="145" class="week-number">W12</text>
  <text x="845" y="165" class="week-text">(계속)</text>
  <line x1="845" y1="220" x2="845" y2="245" stroke="#2ECC71" stroke-width="2"/>
  <circle cx="845" cy="250" r="5" fill="#2ECC71"/>
  
  <!-- Phase 4: IT Foundation (Weeks 13-16) -->
  <text x="105" y="340" class="phase-label" style="fill: #E74C3C;">Phase 4: IT 기술</text>
  
  <rect x="105" y="350" width="50" height="80" rx="5" fill="#E74C3C" stroke="#C0392B" stroke-width="2"/>
  <text x="130" y="370" class="week-number">W13</text>
  <text x="130" y="390" class="week-text">SW</text>
  <text x="130" y="405" class="week-text">공학</text>
  <line x1="130" y1="270" x2="130" y2="345" stroke="#E74C3C" stroke-width="2"/>
  
  <rect x="170" y="350" width="50" height="80" rx="5" fill="#E74C3C" stroke="#C0392B" stroke-width="2"/>
  <text x="195" y="370" class="week-number">W14</text>
  <text x="195" y="390" class="week-text">DB</text>
  <line x1="195" y1="270" x2="195" y2="345" stroke="#E74C3C" stroke-width="2"/>
  
  <rect x="235" y="350" width="50" height="80" rx="5" fill="#E74C3C" stroke="#C0392B" stroke-width="2"/>
  <text x="260" y="370" class="week-number">W15</text>
  <text x="260" y="390" class="week-text">클라우드</text>
  <line x1="260" y1="270" x2="260" y2="345" stroke="#E74C3C" stroke-width="2"/>
  
  <rect x="300" y="350" width="50" height="80" rx="5" fill="#E74C3C" stroke="#C0392B" stroke-width="2"/>
  <text x="325" y="370" class="week-number">W16</text>
  <text x="325" y="390" class="week-text">네트워크</text>
  <line x1="325" y1="270" x2="325" y2="345" stroke="#E74C3C" stroke-width="2"/>
  
  <!-- Milestone 2 -->
  <polygon points="845,270 855,290 835,290" class="milestone"/>
  <text x="845" y="310" class="milestone-text">최종 발표</text>
  
  <polygon points="325,440 335,460 315,460" class="milestone"/>
  <text x="325" y="478" class="milestone-text">수료</text>
  
  <!-- Legend -->
  <text x="410" y="360" style="font-family: Arial; font-size: 12px; font-weight: bold; fill: #2C3E50;">학습 방식:</text>
  <rect x="410" y="370" width="15" height="15" fill="#3498DB"/>
  <text x="430" y="382" style="font-family: Arial; font-size: 11px; fill: #2C3E50;">이론 40%</text>
  
  <rect x="510" y="370" width="15" height="15" fill="#E67E22"/>
  <text x="530" y="382" style="font-family: Arial; font-size: 11px; fill: #2C3E50;">실습 40%</text>
  
  <rect x="610" y="370" width="15" height="15" fill="#2ECC71"/>
  <text x="630" y="382" style="font-family: Arial; font-size: 11px; fill: #2C3E50;">프로젝트 20%</text>
  
  <!-- Key Info -->
  <text x="410" y="415" style="font-family: Arial; font-size: 11px; fill: #34495E;">✓ 총 96시간 (주 2회, 각 3시간)</text>
  <text x="410" y="435" style="font-family: Arial; font-size: 11px; fill: #34495E;">✓ 주차별 퀴즈 + 중간과제 + 최종 프로젝트</text>
  <text x="410" y="455" style="font-family: Arial; font-size: 11px; fill: #34495E;">✓ 출석 80% + 평가 70점 이상 수료</text>
</svg>
